<svg xmlns="http://www.w3.org/2000/svg" viewBox="0 0 212.13 222"><defs><style>.cls-1{fill:#acff30;}.cls-2{fill:lime;}</style></defs><title>chikurincom_logo</title><g id="RB"><rect class="cls-1" x="164.13" width="12" height="198"/><rect class="cls-2" x="164.13" width="12" height="48"/><rect class="cls-2" x="164.13" y="50" width="12" height="48"/><rect class="cls-2" x="164.13" y="150" width="12" height="48"/><rect class="cls-2" x="164.13" y="100" width="12" height="48"/><polygon class="cls-2" points="176.13 49 194.13 37 212.13 41 176.13 49"/><polygon class="cls-1" points="194.13 53 176.13 49 212.13 41 194.13 53"/><polygon class="cls-2" points="164 99.5 146 87.5 128 91.5 164 99.5"/><polygon class="cls-1" points="146 103.5 164 99.5 128 91.5 146 103.5"/><polygon class="cls-2" points="176 148.67 194 136.67 212 140.67 176 148.67"/><polygon class="cls-1" points="194 152.67 176 148.67 212 140.67 194 152.67"/></g><g id="LB"><rect class="cls-1" x="36.13" width="12" height="198"/><rect class="cls-2" x="36.13" width="12" height="48"/><rect class="cls-2" x="36.13" y="50" width="12" height="48"/><rect class="cls-2" x="36.13" y="150" width="12" height="48"/><rect class="cls-2" x="36.13" y="100" width="12" height="48"/><polygon class="cls-2" points="48.13 49 66.13 37 84.13 41 48.13 49"/><polygon class="cls-1" points="66.13 53 48.13 49 84.13 41 66.13 53"/><polygon class="cls-2" points="36 99.5 18 87.5 0 91.5 36 99.5"/><polygon class="cls-1" points="18 103.5 36 99.5 0 91.5 18 103.5"/><polygon class="cls-2" points="36.6 149.38 18.61 137.38 0.6 141.38 36.6 149.38"/><polygon class="cls-1" points="18.61 153.38 36.6 149.38 0.6 141.38 18.61 153.38"/></g><g id="CB_L_" data-name="CB(L)"><rect class="cls-1" x="68.13" y="12" width="12" height="198"/><rect class="cls-2" x="68.13" y="12" width="12" height="48"/><rect class="cls-2" x="68.13" y="62" width="12" height="48"/><rect class="cls-2" x="68.13" y="162" width="12" height="48"/><rect class="cls-2" x="68.13" y="112" width="12" height="48"/><polygon class="cls-2" points="80.13 61 98.13 49 116.13 53 80.13 61"/><polygon class="cls-1" points="98.13 65 80.13 61 116.13 53 98.13 65"/><polygon class="cls-2" points="68 111.5 50 99.5 32 103.5 68 111.5"/><polygon class="cls-1" points="50 115.5 68 111.5 32 103.5 50 115.5"/><polygon class="cls-2" points="68.44 161.28 50.44 149.28 32.44 153.28 68.44 161.28"/><polygon class="cls-1" points="50.44 165.28 68.44 161.28 32.44 153.28 50.44 165.28"/></g><g id="CB_R_" data-name="CB(R)"><rect class="cls-1" x="132.13" y="12" width="12" height="198"/><rect class="cls-2" x="132.13" y="12" width="12" height="48"/><rect class="cls-2" x="132.13" y="62" width="12" height="48"/><rect class="cls-2" x="132.13" y="162" width="12" height="48"/><rect class="cls-2" x="132.13" y="112" width="12" height="48"/><polygon class="cls-2" points="144.13 61 162.13 49 180.13 53 144.13 61"/><polygon class="cls-1" points="162.13 65 144.13 61 180.13 53 162.13 65"/><polygon class="cls-2" points="132 111.5 114 99.5 96 103.5 132 111.5"/><polygon class="cls-1" points="114 115.5 132 111.5 96 103.5 114 115.5"/><polygon class="cls-2" points="144 160.67 162 148.67 180 152.67 144 160.67"/><polygon class="cls-1" points="162 164.67 144 160.67 180 152.67 162 164.67"/></g><g id="CB_C_" data-name="CB(C)"><rect class="cls-1" x="100.13" y="24" width="12" height="198"/><rect class="cls-2" x="100.13" y="24" width="12" height="48"/><rect class="cls-2" x="100.13" y="74" width="12" height="48"/><rect class="cls-2" x="100.13" y="174" width="12" height="48"/><rect class="cls-2" x="100.13" y="124" width="12" height="48"/><polygon class="cls-2" points="112.13 73 130.13 61 148.13 65 112.13 73"/><polygon class="cls-1" points="130.13 77 112.13 73 148.13 65 130.13 77"/><polygon class="cls-2" points="100 123.5 82 111.5 64 115.5 100 123.5"/><polygon class="cls-1" points="82 127.5 100 123.5 64 115.5 82 127.5"/><polygon class="cls-2" points="112 172.67 130 160.67 148 164.67 112 172.67"/><polygon class="cls-1" points="130 176.67 112 172.67 148 164.67 130 176.67"/><polygon class="cls-2" points="100.61 173.38 82.61 161.38 64.61 165.38 100.61 173.38"/><polygon class="cls-1" points="82.61 177.38 100.61 173.38 64.61 165.38 82.61 177.38"/></g></svg>